<svg width="32" height="32" viewBox="0 0 32 32" fill="none" xmlns="http://www.w3.org/2000/svg">
<path d="M15.995 31.4948C24.47 31.4948 31.49 24.4899 31.49 15.9999C31.49 7.52488 24.47 0.504883 15.98 0.504883C7.505 0.504883 0.5 7.52488 0.5 15.9999C0.5 24.4899 7.52 31.4948 15.995 31.4948ZM6.965 6.56488C8.465 5.13989 10.28 4.04488 12.305 3.44488C11.24 4.50988 10.34 6.00989 9.665 7.83988C8.615 7.50988 7.71501 7.07489 6.965 6.56488ZM19.7001 3.45989C21.71 4.05989 23.525 5.13989 25.01 6.56488C24.275 7.08988 23.3751 7.50988 22.325 7.85488C21.65 6.00989 20.75 4.50988 19.7001 3.45989ZM17.045 3.93989C18.29 4.53989 19.43 6.15988 20.24 8.36488C19.25 8.54488 18.185 8.64989 17.045 8.69488V3.93989ZM11.75 8.36488C12.575 6.15988 13.7001 4.53989 14.945 3.93989V8.69488C13.805 8.64989 12.74 8.54488 11.75 8.36488ZM2.945 14.9499C3.15501 12.3999 4.11501 10.0449 5.585 8.10988C6.5 8.78488 7.685 9.36989 9.065 9.80488C8.67501 11.3649 8.42 13.1048 8.345 14.9499H2.945ZM23.645 14.9499C23.57 13.1048 23.315 11.3649 22.925 9.80488C24.305 9.36989 25.49 8.79988 26.39 8.10988C27.875 10.0449 28.835 12.3999 29.045 14.9499H23.645ZM10.49 14.9499C10.565 13.3149 10.79 11.7549 11.135 10.3449C12.335 10.5849 13.6099 10.7349 14.945 10.7949V14.9499H10.49ZM17.045 14.9499V10.7949C18.38 10.7349 19.655 10.5849 20.855 10.3449C21.2 11.7549 21.425 13.3149 21.5 14.9499H17.045ZM2.945 17.0499H8.345C8.42 18.9249 8.67501 20.6799 9.065 22.2549C7.7 22.6898 6.53 23.2598 5.63 23.9349C4.13 21.9848 3.15501 19.6149 2.945 17.0499ZM10.49 17.0499H14.945V21.2799C13.625 21.3398 12.335 21.4899 11.15 21.7149C10.79 20.2899 10.55 18.6998 10.49 17.0499ZM17.045 21.2799V17.0499H21.5C21.44 18.6998 21.2 20.2899 20.84 21.7149C19.655 21.4899 18.38 21.3398 17.045 21.2799ZM22.925 22.2549C23.33 20.6799 23.57 18.9249 23.645 17.0499H29.045C28.835 19.6149 27.8601 21.9848 26.36 23.9349C25.4601 23.2598 24.29 22.6898 22.925 22.2549ZM17.045 23.3799C18.1699 23.4248 19.235 23.5299 20.21 23.7099C19.4 25.8699 18.275 27.4749 17.045 28.0598V23.3799ZM11.78 23.7099C12.755 23.5299 13.82 23.4248 14.945 23.3799V28.0598C13.715 27.4749 12.59 25.8699 11.78 23.7099ZM7.00999 25.4799C7.745 24.9699 8.645 24.5499 9.68 24.2198C10.355 26.0199 11.24 27.4898 12.275 28.5398C10.295 27.9399 8.495 26.8749 7.00999 25.4799ZM22.31 24.2198C23.345 24.5499 24.245 24.9699 24.9801 25.4799C23.495 26.8749 21.6949 27.9399 19.715 28.5398C20.75 27.4898 21.635 26.0199 22.31 24.2198Z" fill="white"/>
</svg>
