<svg width="30" height="31" viewBox="0 0 30 31" fill="none" xmlns="http://www.w3.org/2000/svg">
<path d="M15 21.9897L21 15.9897L18.9 13.8897L16.5 16.2897V9.98975H13.5V16.2897L11.1 13.8897L9 15.9897L15 21.9897ZM15 30.9897C12.925 30.9897 10.975 30.596 9.15 29.8085C7.325 29.021 5.7375 27.9522 4.3875 26.6022C3.0375 25.2522 1.96875 23.6647 1.18125 21.8397C0.39375 20.0147 0 18.0647 0 15.9897C0 13.9147 0.39375 11.9647 1.18125 10.1397C1.96875 8.31475 3.0375 6.72725 4.3875 5.37725C5.7375 4.02725 7.325 2.9585 9.15 2.171C10.975 1.3835 12.925 0.989746 15 0.989746C17.075 0.989746 19.025 1.3835 20.85 2.171C22.675 2.9585 24.2625 4.02725 25.6125 5.37725C26.9625 6.72725 28.0312 8.31475 28.8187 10.1397C29.6062 11.9647 30 13.9147 30 15.9897C30 18.0647 29.6062 20.0147 28.8187 21.8397C28.0312 23.6647 26.9625 25.2522 25.6125 26.6022C24.2625 27.9522 22.675 29.021 20.85 29.8085C19.025 30.596 17.075 30.9897 15 30.9897ZM15 27.9897C18.35 27.9897 21.1875 26.8272 23.5125 24.5022C25.8375 22.1772 27 19.3397 27 15.9897C27 12.6397 25.8375 9.80225 23.5125 7.47725C21.1875 5.15225 18.35 3.98975 15 3.98975C11.65 3.98975 8.8125 5.15225 6.4875 7.47725C4.1625 9.80225 3 12.6397 3 15.9897C3 19.3397 4.1625 22.1772 6.4875 24.5022C8.8125 26.8272 11.65 27.9897 15 27.9897Z" fill="#1C1B1F"/>
</svg>
