<svg width="32" height="33" viewBox="0 0 32 33" fill="none" xmlns="http://www.w3.org/2000/svg">
<path d="M10.6452 26.7582C10.6452 26.626 10.5161 26.4939 10.3226 26.4939C10.129 26.4939 10 26.626 10 26.7582C10 26.8903 10.129 27.0225 10.3226 26.9564C10.5161 26.9564 10.6452 26.8903 10.6452 26.7582ZM8.64516 26.4278C8.64516 26.56 8.77419 26.7582 8.96774 26.7582C9.09677 26.8243 9.29032 26.7582 9.35484 26.626C9.35484 26.4939 9.29032 26.3618 9.09677 26.2957C8.90323 26.2296 8.70968 26.2957 8.64516 26.4278ZM11.5484 26.3618C11.3548 26.3618 11.2258 26.4939 11.2258 26.6921C11.2258 26.8243 11.4194 26.8903 11.6129 26.8243C11.8065 26.7582 11.9355 26.6921 11.871 26.56C11.871 26.4278 11.6774 26.2957 11.5484 26.3618ZM15.7419 0.989746C6.83871 0.989746 0 7.99348 0 17.1115C0 24.4456 4.45161 30.7226 10.9032 32.9691C11.7419 33.1012 12 32.5726 12 32.1762C12 31.7137 12 29.4672 12 28.0797C12 28.0797 7.48387 29.0707 6.51613 26.0975C6.51613 26.0975 5.80645 24.1813 4.77419 23.7188C4.77419 23.7188 3.29032 22.6617 4.83871 22.6617C4.83871 22.6617 6.45161 22.7938 7.35484 24.3796C8.77419 26.9564 11.0968 26.2296 12.0645 25.7671C12.1935 24.7099 12.5806 23.9831 13.0968 23.5206C9.48387 23.1242 5.80645 22.5956 5.80645 16.2526C5.80645 14.4026 6.32258 13.5436 7.35484 12.3543C7.16129 11.8918 6.64516 10.1739 7.54839 7.86133C8.83871 7.46489 12 9.6453 12 9.6453C13.2903 9.24886 14.6452 9.11672 16 9.11672C17.4194 9.11672 18.7742 9.24886 20.0645 9.6453C20.0645 9.6453 23.1613 7.39882 24.5161 7.86133C25.4194 10.1739 24.8387 11.8918 24.7097 12.3543C25.7419 13.5436 26.3871 14.4026 26.3871 16.2526C26.3871 22.5956 22.5806 23.1242 18.9677 23.5206C19.5484 24.0492 20.0645 25.0403 20.0645 26.626C20.0645 28.8065 20 31.5815 20 32.1101C20 32.5726 20.3226 33.1012 21.1613 32.903C27.6129 30.7226 32 24.4456 32 17.1115C32 7.99348 24.7097 0.989746 15.7419 0.989746ZM6.25806 23.7849C6.12903 23.851 6.19355 24.0492 6.25806 24.1813C6.3871 24.2474 6.51613 24.3135 6.64516 24.2474C6.70968 24.1813 6.70968 23.9831 6.58065 23.851C6.45161 23.7849 6.32258 23.7188 6.25806 23.7849ZM5.54839 23.2563C5.48387 23.3885 5.54839 23.4545 5.67742 23.5206C5.80645 23.5867 5.93548 23.5867 6 23.4545C6 23.3885 5.93548 23.3224 5.80645 23.2563C5.67742 23.1903 5.6129 23.1903 5.54839 23.2563ZM7.6129 25.635C7.54839 25.701 7.54839 25.8992 7.74194 26.0314C7.87097 26.1635 8.06452 26.2296 8.12903 26.0975C8.19355 26.0314 8.19355 25.8332 8.06452 25.701C7.93548 25.5689 7.74194 25.5028 7.6129 25.635ZM6.90323 24.6439C6.77419 24.7099 6.77419 24.9082 6.90323 25.0403C7.03226 25.1724 7.16129 25.2385 7.29032 25.1724C7.35484 25.1064 7.35484 24.9082 7.29032 24.776C7.16129 24.6439 7.03226 24.5778 6.90323 24.6439Z" fill="black"/>
</svg>
