<svg width="30" height="31" viewBox="0 0 30 31" fill="none" xmlns="http://www.w3.org/2000/svg">
<path d="M15 21.0215L21 15.0215L18.9 12.9215L16.5 15.3215V9.02148H13.5V15.3215L11.1 12.9215L9 15.0215L15 21.0215ZM15 30.0215C12.925 30.0215 10.975 29.6277 9.15 28.8402C7.325 28.0527 5.7375 26.984 4.3875 25.634C3.0375 24.284 1.96875 22.6965 1.18125 20.8715C0.39375 19.0465 0 17.0965 0 15.0215C0 12.9465 0.39375 10.9965 1.18125 9.17148C1.96875 7.34648 3.0375 5.75898 4.3875 4.40898C5.7375 3.05898 7.325 1.99023 9.15 1.20273C10.975 0.415234 12.925 0.0214844 15 0.0214844C17.075 0.0214844 19.025 0.415234 20.85 1.20273C22.675 1.99023 24.2625 3.05898 25.6125 4.40898C26.9625 5.75898 28.0312 7.34648 28.8187 9.17148C29.6062 10.9965 30 12.9465 30 15.0215C30 17.0965 29.6062 19.0465 28.8187 20.8715C28.0312 22.6965 26.9625 24.284 25.6125 25.634C24.2625 26.984 22.675 28.0527 20.85 28.8402C19.025 29.6277 17.075 30.0215 15 30.0215ZM15 27.0215C18.35 27.0215 21.1875 25.859 23.5125 23.534C25.8375 21.209 27 18.3715 27 15.0215C27 11.6715 25.8375 8.83399 23.5125 6.50898C21.1875 4.18398 18.35 3.02148 15 3.02148C11.65 3.02148 8.8125 4.18398 6.4875 6.50898C4.1625 8.83399 3 11.6715 3 15.0215C3 18.3715 4.1625 21.209 6.4875 23.534C8.8125 25.859 11.65 27.0215 15 27.0215Z" fill="white"/>
</svg>
