<svg width="32" height="33" viewBox="0 0 32 33" fill="none" xmlns="http://www.w3.org/2000/svg">
<path d="M19 25.5859H9V23.5859H19V25.5859ZM25 13.9209L23.379 4.58594L21.386 4.93194L23.006 14.2669L25 13.9209ZM19.036 20.8579L9.29 19.8829L9.104 21.8989L18.859 22.7779L19.036 20.8579ZM19.574 18.2709L10.298 15.6629L9.772 17.6169L19.078 20.1169L19.574 18.2709ZM20.778 15.8579L12.481 10.9939L11.452 12.7369L19.75 17.6019L20.778 15.8579ZM22.644 14.3909L17.305 6.56194L15.633 7.70194L20.972 15.5309L22.644 14.3909ZM20 18.5859V26.5859H8V18.5859H6V28.5859H22V18.5859H20Z" fill="black"/>
</svg>
